<?xml version="1.0" encoding="UTF-8"?>
<svg version="1.1" xmlns="http://www.w3.org/2000/svg" width="128" height="128">
<path d="M0 0 C42.24 0 84.48 0 128 0 C128 42.24 128 84.48 128 128 C85.76 128 43.52 128 0 128 C0 85.76 0 43.52 0 0 Z " fill="#993C31" transform="translate(0,0)"/>
<path d="M0 0 C6.15234375 -0.09765625 6.15234375 -0.09765625 8 0 C9.77201559 1.77201559 9 4.60574059 9 7 C9.291224 8.67453799 9.61070799 10.34550895 10 12 C7 14 7 14 0 14 C0 9.38 0 4.76 0 0 Z " fill="#F3E9E7" transform="translate(69,60)"/>
<path d="M0 0 C3.375 -0.125 3.375 -0.125 7 0 C7.66 0.66 8.32 1.32 9 2 C8.5625 4.0625 8.5625 4.0625 8 6 C8.33 6.33 8.66 6.66 9 7 C9.125 9.5 9.125 9.5 9 12 C8 13 8 13 6.15234375 13.09765625 C4.1015625 13.06510417 2.05078125 13.03255208 0 13 C0 8.71 0 4.42 0 0 Z " fill="#F4EBEA" transform="translate(5,60)"/>
<path d="M0 0 C0.66 0 1.32 0 2 0 C2 4.62 2 9.24 2 14 C-5 14 -5 14 -6.9375 12.8125 C-8.38718434 10.33950907 -8.42317323 8.82115488 -8 6 C-6.75 4.125 -6.75 4.125 -5 3 C-2.8125 3.3125 -2.8125 3.3125 -1 4 C-0.67 2.68 -0.34 1.36 0 0 Z " fill="#E7D2CF" transform="translate(111,60)"/>
<path d="M0 0 C0.66 0 1.32 0 2 0 C2 4.62 2 9.24 2 14 C-5 14 -5 14 -6.9375 12.8125 C-8.38718434 10.33950907 -8.42317323 8.82115488 -8 6 C-6.75 4.125 -6.75 4.125 -5 3 C-2.8125 3.3125 -2.8125 3.3125 -1 4 C-0.67 2.68 -0.34 1.36 0 0 Z " fill="#E7D2CF" transform="translate(35,60)"/>
<path d="M0 0 C1.670625 0.061875 1.670625 0.061875 3.375 0.125 C3.40185938 2.27076637 3.42133088 4.41662645 3.4375 6.5625 C3.44910156 7.75746094 3.46070313 8.95242187 3.47265625 10.18359375 C3.375 13.125 3.375 13.125 2.375 14.125 C0.04202567 14.16592937 -2.29205225 14.16741723 -4.625 14.125 C-4.625 13.465 -4.625 12.805 -4.625 12.125 C-2.975 12.125 -1.325 12.125 0.375 12.125 C0.705 11.465 1.035 10.805 1.375 10.125 C0.59125 10.16625 -0.1925 10.2075 -1 10.25 C-3.625 10.125 -3.625 10.125 -5.625 8.125 C-5.875 5.125 -5.875 5.125 -5.625 2.125 C-3.625 0.125 -3.625 0.125 0 0 Z " fill="#F1E5E4" transform="translate(44.625,62.875)"/>
<path d="M0 0 C0.66 0 1.32 0 2 0 C2 4.62 2 9.24 2 14 C-0.31 14 -2.62 14 -5 14 C-7 12 -7 12 -7.25 8.5 C-7 5 -7 5 -5 3 C-3.68 3 -2.36 3 -1 3 C-0.67 2.01 -0.34 1.02 0 0 Z " fill="#F2E7E6" transform="translate(99,60)"/>
<path d="M0 0 C3.29714793 0.32971479 4.6226839 0.6226839 7 3 C7 3.99 7 4.98 7 6 C4.69 6 2.38 6 0 6 C0.33 6.66 0.66 7.32 1 8 C2.65 8 4.3 8 6 8 C6 8.66 6 9.32 6 10 C3.125 10.625 3.125 10.625 0 11 C-2 9 -2 9 -2.25 5.5 C-2 2 -2 2 0 0 Z " fill="#F2E7E6" transform="translate(53,63)"/>
<path d="M0 0 C0.66 0 1.32 0 2 0 C2.33 2.64 2.66 5.28 3 8 C3.66 8 4.32 8 5 8 C5.33 5.36 5.66 2.72 6 0 C6.99 0 7.98 0 9 0 C9 3.63 9 7.26 9 11 C5.625 11.125 5.625 11.125 2 11 C0 9 0 9 -0.1953125 6.8359375 C-0.17210938 6.02382812 -0.14890625 5.21171875 -0.125 4.375 C-0.10695313 3.55773437 -0.08890625 2.74046875 -0.0703125 1.8984375 C-0.04710938 1.27195312 -0.02390625 0.64546875 0 0 Z " fill="#E6D0CD" transform="translate(81,63)"/>
<path d="M0 0 C0.66 0 1.32 0 2 0 C2.66 1.65 3.32 3.3 4 5 C5.93798263 2.22739701 5.93798263 2.22739701 7 0 C7.66 0 8.32 0 9 0 C8.54857225 1.77260631 8.08859477 3.5430368 7.625 5.3125 C7.36976562 6.29863281 7.11453125 7.28476563 6.8515625 8.30078125 C6 11 6 11 4 14 C3.01 14 2.02 14 1 14 C1 13.34 1 12.68 1 12 C1.66 12 2.32 12 3 12 C2.7834375 11.38511719 2.566875 10.77023438 2.34375 10.13671875 C2.0653125 9.32847656 1.786875 8.52023438 1.5 7.6875 C1.2215625 6.88699219 0.943125 6.08648437 0.65625 5.26171875 C0 3 0 3 0 0 Z " fill="#EFE1E0" transform="translate(115,63)"/>
<path d="M0 0 C0.66 0 1.32 0 2 0 C2.33 2.64 2.66 5.28 3 8 C3.66 8 4.32 8 5 8 C5.33 5.36 5.66 2.72 6 0 C6.66 0 7.32 0 8 0 C8 3.63 8 7.26 8 11 C2.25 11.125 2.25 11.125 0 10 C0 6.7 0 3.4 0 0 Z " fill="#EEDFDD" transform="translate(17,63)"/>
<path d="M0 0 C0.598125 0.226875 1.19625 0.45375 1.8125 0.6875 C0.8225 1.3475 -0.1675 2.0075 -1.1875 2.6875 C-1.6875 5.1875 -1.6875 5.1875 -1.1875 7.6875 C-0.1975 8.3475 0.7925 9.0075 1.8125 9.6875 C0 10.375 0 10.375 -2.1875 10.6875 C-3.9375 9.5625 -3.9375 9.5625 -5.1875 7.6875 C-5.62983017 4.73863223 -5.60289291 3.31058937 -3.9375 0.8125 C-2.1875 -0.3125 -2.1875 -0.3125 0 0 Z " fill="#E9D6D4" transform="translate(108.1875,63.3125)"/>
<path d="M0 0 C0.598125 0.226875 1.19625 0.45375 1.8125 0.6875 C0.8225 1.3475 -0.1675 2.0075 -1.1875 2.6875 C-1.6875 5.1875 -1.6875 5.1875 -1.1875 7.6875 C-0.1975 8.3475 0.7925 9.0075 1.8125 9.6875 C0 10.375 0 10.375 -2.1875 10.6875 C-3.9375 9.5625 -3.9375 9.5625 -5.1875 7.6875 C-5.62983017 4.73863223 -5.60289291 3.31058937 -3.9375 0.8125 C-2.1875 -0.3125 -2.1875 -0.3125 0 0 Z " fill="#E9D6D4" transform="translate(32.1875,63.3125)"/>
<path d="M0 0 C0.66 0 1.32 0 2 0 C2 0.66 2 1.32 2 2 C2.66 2 3.32 2 4 2 C4 2.66 4 3.32 4 4 C3.34 4 2.68 4 2 4 C2 6.31 2 8.62 2 11 C2.66 11 3.32 11 4 11 C4 11.66 4 12.32 4 13 C2.68 12.67 1.36 12.34 0 12 C0 9.36 0 6.72 0 4 C-0.66 4 -1.32 4 -2 4 C-2 3.34 -2 2.68 -2 2 C-1.34 2 -0.68 2 0 2 C0 1.34 0 0.68 0 0 Z " fill="#ECDBD9" transform="translate(63,61)"/>
<path d="M0 0 C2.0625 0.4375 2.0625 0.4375 4 1 C4 2.65 4 4.3 4 6 C2.0625 6.5625 2.0625 6.5625 0 7 C-1 6 -1 6 -1.125 3.5 C-1 1 -1 1 0 0 Z " fill="#9F473D" transform="translate(95,65)"/>
<path d="M0 0 C2.0625 0.4375 2.0625 0.4375 4 1 C4 2.65 4 4.3 4 6 C2.68 6 1.36 6 0 6 C-0.38218767 4.34385343 -0.71395102 2.67542976 -1 1 C-0.67 0.67 -0.34 0.34 0 0 Z " fill="#A04A40" transform="translate(42,65)"/>
<path d="M0 0 C2.97 0.495 2.97 0.495 6 1 C5.67 2.32 5.34 3.64 5 5 C3.35 5 1.7 5 0 5 C0 3.35 0 1.7 0 0 Z " fill="#AC6259" transform="translate(71,67)"/>
<path d="M0 0 C2.125 0.375 2.125 0.375 4 1 C4.33 2.32 4.66 3.64 5 5 C3.02 5 1.04 5 -1 5 C-1.33 4.01 -1.66 3.02 -2 2 C-1.34 1.34 -0.68 0.68 0 0 Z " fill="#CDA19C" transform="translate(53,63)"/>
<path d="M0 0 C0.99 0 1.98 0 3 0 C3 1.98 3 3.96 3 6 C1.68 6 0.36 6 -1 6 C-1.042721 4.33388095 -1.04063832 2.66617115 -1 1 C-0.67 0.67 -0.34 0.34 0 0 Z " fill="#9B4036" transform="translate(107,65)"/>
<path d="M0 0 C0.99 0 1.98 0 3 0 C3 1.98 3 3.96 3 6 C1.68 6 0.36 6 -1 6 C-1.042721 4.33388095 -1.04063832 2.66617115 -1 1 C-0.67 0.67 -0.34 0.34 0 0 Z " fill="#9B4036" transform="translate(31,65)"/>
<path d="M0 0 C1.65 0 3.3 0 5 0 C4.67 1.32 4.34 2.64 4 4 C2.68 4 1.36 4 0 4 C0 2.68 0 1.36 0 0 Z " fill="#9F493E" transform="translate(7,68)"/>
<path d="M0 0 C1.65 0 3.3 0 5 0 C4.67 1.32 4.34 2.64 4 4 C2.68 4 1.36 4 0 4 C0 2.68 0 1.36 0 0 Z " fill="#A34F45" transform="translate(71,62)"/>
<path d="M0 0 C1.65 0 3.3 0 5 0 C4.67 1.32 4.34 2.64 4 4 C2.68 4 1.36 4 0 4 C0 2.68 0 1.36 0 0 Z " fill="#A34F45" transform="translate(7,62)"/>
<path d="M0 0 C0 1.65 0 3.3 0 5 C-0.99 5 -1.98 5 -3 5 C-2.67 3.68 -2.34 2.36 -2 1 C-3.65 1 -5.3 1 -7 1 C-3.375 -1.125 -3.375 -1.125 0 0 Z " fill="#ECDBD9" transform="translate(78,61)"/>
</svg>
